<svg xmlns="http://www.w3.org/2000/svg" width="39" height="39" viewBox="0 0 39 39">
  <metadata><?xpacket begin="﻿" id="W5M0MpCehiHzreSzNTczkc9d"?>
<x:xmpmeta xmlns:x="adobe:ns:meta/" x:xmptk="Adobe XMP Core 5.6-c138 79.159824, 2016/09/14-01:09:01        ">
   <rdf:RDF xmlns:rdf="http://www.w3.org/1999/02/22-rdf-syntax-ns#">
      <rdf:Description rdf:about=""/>
   </rdf:RDF>
</x:xmpmeta>
                                                                                                    
                                                                                                    
                                                                                                    
                                                                                                    
                                                                                                    
                                                                                                    
                                                                                                    
                                                                                                    
                                                                                                    
                                                                                                    
                                                                                                    
                                                                                                    
                                                                                                    
                                                                                                    
                                                                                                    
                                                                                                    
                                                                                                    
                                                                                                    
                                                                                                    
                                                                                                    
                           
<?xpacket end="w"?></metadata>
<defs>
    <style>
      .cls-1 {
        fill: #00a4e0;
        fill-rule: evenodd;
      }
    </style>
  </defs>
  <path id="bestPrice" class="cls-1" d="M905,594.657A2.641,2.641,0,0,0,902.343,592a2.66,2.66,0,0,0-1.882.786c-0.214.213-.6,0.674-0.814,0.929a0.632,0.632,0,0,0,.973.808c0.332-.4.607-0.716,0.734-0.844a1.407,1.407,0,0,1,.994-0.415h0.006a1.378,1.378,0,0,1,1.382,1.387,1.4,1.4,0,0,1-.416.994,22.427,22.427,0,0,1-2.233,1.71,4,4,0,0,0-3.455-1.988H888.38a4.648,4.648,0,0,0-3.307,1.369L866.58,615.23a1.98,1.98,0,0,0,0,2.8l12.39,12.391a1.982,1.982,0,0,0,2.8,0l18.494-18.494a4.644,4.644,0,0,0,1.369-3.306v-9.253a4.027,4.027,0,0,0-.08-0.8,24.3,24.3,0,0,0,2.661-2.032A2.665,2.665,0,0,0,905,594.657Zm-4.63,13.964a3.385,3.385,0,0,1-1,2.412l-18.493,18.5a0.718,0.718,0,0,1-1.013,0l-12.391-12.391a0.718,0.718,0,0,1,0-1.013l18.494-18.494a3.387,3.387,0,0,1,2.413-1h9.251a2.742,2.742,0,0,1,2.409,1.437c-0.746.494-1.582,1.02-2.469,1.536-0.027-.03-0.056-0.06-0.085-0.089a2.658,2.658,0,1,0,.688,1.2c0.771-.449,1.512-0.908,2.2-1.352v9.259h0Zm-5.324-6.947a0.633,0.633,0,0,0,.849.281q0.555-.28,1.105-0.579a1.391,1.391,0,1,1-.587-1.119c-0.357.2-.72,0.385-1.086,0.569A0.631,0.631,0,0,0,895.045,601.674Zm-10.219,3.2a0.632,0.632,0,0,0-.631.632v13.344a0.632,0.632,0,1,0,1.263,0V605.5A0.632,0.632,0,0,0,884.826,604.87Zm-2.889,5.428a2.652,2.652,0,1,0,.778,1.876A2.657,2.657,0,0,0,881.937,610.3Zm-0.893,2.859a1.391,1.391,0,1,1,.407-0.983A1.392,1.392,0,0,1,881.044,613.157Zm10.424-2.86a2.652,2.652,0,1,0,0,3.754A2.657,2.657,0,0,0,891.468,610.3Zm-0.893,2.86a1.39,1.39,0,1,1,0-1.966A1.392,1.392,0,0,1,890.575,613.157Z" transform="translate(-866 -592)"/>
</svg>
