<svg xmlns="http://www.w3.org/2000/svg" width="59" height="37" viewBox="0 0 59 37">
  <metadata><?xpacket begin="﻿" id="W5M0MpCehiHzreSzNTczkc9d"?>
<x:xmpmeta xmlns:x="adobe:ns:meta/" x:xmptk="Adobe XMP Core 5.6-c138 79.159824, 2016/09/14-01:09:01        ">
   <rdf:RDF xmlns:rdf="http://www.w3.org/1999/02/22-rdf-syntax-ns#">
      <rdf:Description rdf:about=""/>
   </rdf:RDF>
</x:xmpmeta>
                                                                                                    
                                                                                                    
                                                                                                    
                                                                                                    
                                                                                                    
                                                                                                    
                                                                                                    
                                                                                                    
                                                                                                    
                                                                                                    
                                                                                                    
                                                                                                    
                                                                                                    
                                                                                                    
                                                                                                    
                                                                                                    
                                                                                                    
                                                                                                    
                                                                                                    
                                                                                                    
                           
<?xpacket end="w"?></metadata>
<defs>
    <style>
      .cls-1 {
        fill: #00a4e0;
        fill-rule: evenodd;
      }
    </style>
  </defs>
  <path id="delivery" class="cls-1" d="M677.87,608.685l-1.528-6.058a0.918,0.918,0,0,0,.731-0.9v-0.977a3.868,3.868,0,0,0-3.88-3.846h-6.959v-2.015A1.9,1.9,0,0,0,664.325,593H628.851a1.9,1.9,0,0,0-1.91,1.893V611.5a0.924,0.924,0,0,0,1.848,0V594.893a0.061,0.061,0,0,1,.062-0.061h35.473a0.061,0.061,0,0,1,.062.061V611.5a0.924,0.924,0,0,0,1.848,0v-1.038h10.9a3.021,3.021,0,0,1,2.871,2.076h-2.873a0.919,0.919,0,0,0-.923.916v1.954a2.885,2.885,0,0,0,2.894,2.869h1.047v4.03h-2.415a5.866,5.866,0,0,0-11.059,0h-0.445v-6.9a0.924,0.924,0,0,0-1.847,0v6.9H645.219a5.865,5.865,0,0,0-11.058,0h-5.31a0.061,0.061,0,0,1-.062-0.061v-2.015h4a0.916,0.916,0,1,0,0-1.832h-8.868a0.916,0.916,0,1,0,0,1.832h3.018v2.015a1.9,1.9,0,0,0,1.909,1.893h4.99c0,0.02,0,.04,0,0.061a5.851,5.851,0,0,0,11.7,0c0-.021,0-0.041,0-0.061h20.819c0,0.02,0,.04,0,0.061a5.851,5.851,0,0,0,11.7,0c0-.021,0-0.041,0-0.061h3.02a0.92,0.92,0,0,0,.924-0.916v-9.769A4.845,4.845,0,0,0,677.87,608.685Zm-11.636-9.946h6.959a2.026,2.026,0,0,1,2.032,2.015v0.061h-8.991v-2.076Zm0,9.891v-5.983h8.209l1.508,5.983h-9.717ZM639.69,628.168a3.969,3.969,0,1,1,4-3.968A3.99,3.99,0,0,1,639.69,628.168Zm32.518,0a3.969,3.969,0,1,1,4-3.968A3.99,3.99,0,0,1,672.208,628.168Zm7.944-11.722h-1.047a1.044,1.044,0,0,1-1.047-1.038V614.37h2.094v2.076h0Zm-40.462,5.861A1.893,1.893,0,1,0,641.6,624.2,1.9,1.9,0,0,0,639.69,622.307Zm32.518,0a1.893,1.893,0,1,0,1.909,1.893A1.9,1.9,0,0,0,672.208,622.307Zm-10.84-3.907h-13.8a0.916,0.916,0,1,0,0,1.831h13.8A0.916,0.916,0,1,0,661.368,618.4Zm-23.649-3.908H625.9a0.916,0.916,0,1,0,0,1.832h11.824A0.916,0.916,0,1,0,637.719,614.492Zm17.4-12.432a0.93,0.93,0,0,0-1.306,0l-8.216,8.145-4.273-4.237a0.93,0.93,0,0,0-1.307,0,0.91,0.91,0,0,0,0,1.3l4.927,4.885a0.93,0.93,0,0,0,1.306,0l8.869-8.792A0.911,0.911,0,0,0,655.124,602.06Z" transform="translate(-623 -593)"/>
</svg>
