<?xml version="1.0" encoding="utf-8"?>
<!-- Generator: Adobe Illustrator 17.0.0, SVG Export Plug-In . SVG Version: 6.00 Build 0)  -->
<!DOCTYPE svg PUBLIC "-//W3C//DTD SVG 1.1//EN" "http://www.w3.org/Graphics/SVG/1.1/DTD/svg11.dtd">
<svg version="1.1" id="Capa_1" xmlns="http://www.w3.org/2000/svg" xmlns:xlink="http://www.w3.org/1999/xlink" x="0px" y="0px"
	 width="25.063px" height="21.979px" viewBox="-4.063 -1.968 25.063 21.979" enable-background="new -4.063 -1.968 25.063 21.979"
	 xml:space="preserve">
<g>
	<path fill="#EFEFEF" d="M18.95,0.074c-1.309-1.309-3.042-2.025-4.891-2.025s-3.589,0.72-4.899,2.03L8.476,0.762L7.782,0.068
		C6.473-1.242,4.73-1.968,2.88-1.968c-1.844,0-3.583,0.72-4.887,2.025c-1.309,1.309-2.03,3.047-2.025,4.897
		c0,1.85,0.726,3.583,2.036,4.891l9.953,9.953c0.138,0.138,0.324,0.212,0.504,0.212c0.18,0,0.365-0.069,0.504-0.207l9.975-9.936
		c1.309-1.309,2.03-3.047,2.03-4.897C20.975,3.121,20.259,1.383,18.95,0.074z M17.933,8.855l-9.471,9.433l-9.45-9.45
		c-1.039-1.039-1.611-2.417-1.611-3.884s0.567-2.846,1.606-3.88C0.041,0.041,1.42-0.531,2.882-0.531c1.468,0,2.851,0.573,3.89,1.611
		l1.198,1.198c0.281,0.281,0.731,0.281,1.012,0l1.187-1.187c1.039-1.039,2.422-1.611,3.884-1.611c1.463,0,2.84,0.573,3.88,1.606
		c1.039,1.039,1.606,2.417,1.606,3.884C19.544,6.439,18.971,7.817,17.933,8.855z"/>
</g>
</svg>
