<svg xmlns="http://www.w3.org/2000/svg" width="39" height="39" viewBox="0 0 39 39">
  <metadata><?xpacket begin="﻿" id="W5M0MpCehiHzreSzNTczkc9d"?>
<x:xmpmeta xmlns:x="adobe:ns:meta/" x:xmptk="Adobe XMP Core 5.6-c138 79.159824, 2016/09/14-01:09:01        ">
   <rdf:RDF xmlns:rdf="http://www.w3.org/1999/02/22-rdf-syntax-ns#">
      <rdf:Description rdf:about=""/>
   </rdf:RDF>
</x:xmpmeta>
                                                                                                    
                                                                                                    
                                                                                                    
                                                                                                    
                                                                                                    
                                                                                                    
                                                                                                    
                                                                                                    
                                                                                                    
                                                                                                    
                                                                                                    
                                                                                                    
                                                                                                    
                                                                                                    
                                                                                                    
                                                                                                    
                                                                                                    
                                                                                                    
                                                                                                    
                                                                                                    
                           
<?xpacket end="w"?></metadata>
<defs>
    <style>
      .cls-1 {
        fill: #00a4e0;
        fill-rule: evenodd;
      }
    </style>
  </defs>
  <path id="original" class="cls-1" d="M1133.88,609.221a2.239,2.239,0,0,0-2.24-2.239h-4.11a6.783,6.783,0,0,0,1.78-3.551,2.445,2.445,0,0,0-.6-1.91,2.131,2.131,0,0,0-1.6-.735h-0.02a2.235,2.235,0,0,0-2.24,2.22,2.825,2.825,0,0,1-.81,1.114,6.35,6.35,0,0,1-2.42,1.417,2.987,2.987,0,0,0-1.25.817,7.613,7.613,0,0,1-.84.775,1.281,1.281,0,0,0-.59-0.146h-3.91a1.265,1.265,0,0,0-1.26,1.262v10.421a1.265,1.265,0,0,0,1.26,1.262h3.91a1.243,1.243,0,0,0,1.1-.651h9.98a1.916,1.916,0,0,0,1.91-1.914,1.9,1.9,0,0,0-.27-0.972,1.916,1.916,0,0,0,.92-1.633,1.892,1.892,0,0,0-.27-0.972,1.915,1.915,0,0,0,.59-2.711A2.244,2.244,0,0,0,1133.88,609.221Zm-2.24,1.018h-0.32a0.611,0.611,0,0,0,0,1.221,0.693,0.693,0,0,1,0,1.385h-0.65a0.611,0.611,0,0,0,0,1.221,0.692,0.692,0,0,1,0,1.384h-0.65a0.611,0.611,0,0,0,0,1.221,0.693,0.693,0,0,1,0,1.385h-9.82v-5.9a0.61,0.61,0,1,0-1.22,0v6.513a0.042,0.042,0,0,1-.04.041h-3.91a0.042,0.042,0,0,1-.04-0.041V608.244a0.041,0.041,0,0,1,.04-0.04h3.91a0.041,0.041,0,0,1,.04.04v1.3a0.61,0.61,0,1,0,1.22,0v-1.39a9.2,9.2,0,0,0,1.06-.967,1.754,1.754,0,0,1,.74-0.491,7.6,7.6,0,0,0,2.96-1.766,3.189,3.189,0,0,0,1.12-1.916,1,1,0,0,1,.29-0.715,1.032,1.032,0,0,1,.73-0.294,0.937,0.937,0,0,1,.7.324,1.317,1.317,0,0,1,.3.966,6.5,6.5,0,0,1-2.48,3.82,0.612,0.612,0,0,0,.39,1.086h5.63A1.018,1.018,0,1,1,1131.64,610.239Zm-14.65,5.856a0.614,0.614,0,1,0,.61.614A0.619,0.619,0,0,0,1116.99,616.1Zm24.92-4.594,1.05-2.776a0.593,0.593,0,0,0-.1-0.6l-1.85-2.315,0.14-2.965a0.618,0.618,0,0,0-.28-0.539l-2.48-1.629-0.78-2.863a0.615,0.615,0,0,0-.43-0.427l-2.86-.783-1.63-2.48a0.608,0.608,0,0,0-.54-0.275l-2.96.14-2.32-1.856a0.6,0.6,0,0,0-.59-0.094l-2.78,1.049-2.78-1.049a0.6,0.6,0,0,0-.59.094l-2.32,1.856-2.96-.14a0.608,0.608,0,0,0-.54.275l-1.63,2.48-2.86.783a0.616,0.616,0,0,0-.43.428l-0.78,2.862-2.48,1.629a0.618,0.618,0,0,0-.28.539l0.14,2.965-1.85,2.315a0.593,0.593,0,0,0-.1.6l1.05,2.776-1.05,2.776a0.593,0.593,0,0,0,.1.6l1.85,2.316-0.14,2.964a0.616,0.616,0,0,0,.28.539l2.48,1.629,0.78,2.863a0.613,0.613,0,0,0,.43.427l2.86,0.783,1.63,2.481a0.61,0.61,0,0,0,.54.274l2.96-.14,2.32,1.856a0.6,0.6,0,0,0,.59.1l2.78-1.049,2.78,1.049a0.6,0.6,0,0,0,.59-0.1l2.32-1.856,2.96,0.14a0.61,0.61,0,0,0,.54-0.274l1.63-2.481,2.86-.783a0.615,0.615,0,0,0,.43-0.427l0.78-2.863,2.48-1.629a0.618,0.618,0,0,0,.28-0.539l-0.14-2.964,1.85-2.316a0.593,0.593,0,0,0,.1-0.6Zm-1.22.216,1,2.666-1.78,2.224a0.608,0.608,0,0,0-.13.411l0.13,2.846-2.38,1.565a0.63,0.63,0,0,0-.25.349l-0.75,2.749-2.75.752a0.588,0.588,0,0,0-.35.254l-1.57,2.382-2.84-.134a0.6,0.6,0,0,0-.41.133l-2.23,1.782-2.66-1.007a0.625,0.625,0,0,0-.44,0l-2.66,1.007-2.23-1.782a0.6,0.6,0,0,0-.41-0.133l-2.84.134-1.57-2.382a0.588,0.588,0,0,0-.35-0.254l-2.75-.752-0.75-2.749a0.63,0.63,0,0,0-.25-0.349l-2.38-1.565,0.13-2.846a0.608,0.608,0,0,0-.13-0.411l-1.78-2.224,1-2.666a0.541,0.541,0,0,0,0-.432l-1-2.666,1.78-2.224a0.607,0.607,0,0,0,.13-0.41l-0.13-2.847,2.38-1.565a0.626,0.626,0,0,0,.25-0.349l0.75-2.749,2.75-.752a0.584,0.584,0,0,0,.35-0.254l1.57-2.382,2.84,0.135a0.6,0.6,0,0,0,.41-0.134l2.23-1.782,2.66,1.008a0.64,0.64,0,0,0,.44,0l2.66-1.008,2.23,1.782a0.6,0.6,0,0,0,.41.134l2.84-.135,1.57,2.382a0.588,0.588,0,0,0,.35.254l2.75,0.752,0.75,2.749a0.63,0.63,0,0,0,.25.349l2.38,1.565-0.13,2.847a0.607,0.607,0,0,0,.13.41l1.78,2.224-1,2.666A0.541,0.541,0,0,0,1140.69,611.717Zm-5.72-10.76c-0.15-.165-0.31-0.33-0.47-0.489s-0.32-.317-0.48-0.469a0.62,0.62,0,0,0-.87.037,0.608,0.608,0,0,0,.04.863c0.15,0.14.3,0.286,0.45,0.432s0.29,0.3.43,0.452a0.616,0.616,0,0,0,.45.2,0.629,0.629,0,0,0,.42-0.16A0.617,0.617,0,0,0,1134.97,600.957Zm-3.12-2.624a15.593,15.593,0,0,0-20.31,23.186,0.609,0.609,0,1,0,.93-0.786,14.374,14.374,0,0,1,18.72-21.37A0.612,0.612,0,0,0,1131.85,598.333Zm4.79,4.792a0.611,0.611,0,0,0-1.03.657,14.373,14.373,0,0,1-21.37,18.719,0.608,0.608,0,1,0-.78.934,15.51,15.51,0,0,0,10.02,3.65c0.21,0,.42,0,0.64-0.013A15.594,15.594,0,0,0,1136.64,603.125Z" transform="translate(-1104 -592)"/>
</svg>
