<?xml version="1.0" standalone="no"?>
<!DOCTYPE svg PUBLIC "-//W3C//DTD SVG 20010904//EN"
 "http://www.w3.org/TR/2001/REC-SVG-20010904/DTD/svg10.dtd">
<svg version="1.0" xmlns="http://www.w3.org/2000/svg"
 width="180.000000pt" height="180.000000pt" viewBox="0 0 180.000000 180.000000"
 preserveAspectRatio="xMidYMid meet">
<metadata>
Created by potrace 1.11, written by Peter Selinger 2001-2013
</metadata>
<g transform="translate(0.000000,180.000000) scale(0.100000,-0.100000)"
fill="#000000" stroke="none">
<path d="M314 1780 c-144 -39 -261 -158 -297 -300 -21 -81 -21 -1080 0 -1160
39 -151 179 -280 333 -308 25 -4 281 -7 570 -7 483 1 529 2 580 19 119 41 210
121 264 235 l31 66 0 575 0 575 -37 76 c-59 120 -169 209 -294 237 -22 5 -276
9 -565 9 -463 0 -531 -2 -585 -17z m1171 -83 c68 -24 135 -75 174 -133 61 -93
61 -93 59 -684 l-3 -535 -29 -59 c-50 -102 -144 -174 -252 -193 -62 -11 -1036
-10 -1084 1 -107 25 -207 113 -247 217 -15 39 -17 103 -19 569 -3 581 -1 599
60 684 52 73 131 127 213 144 21 5 272 8 558 8 469 -1 525 -3 570 -19z"/>
<path d="M1123 1589 c-82 -15 -182 -89 -220 -162 -15 -29 -14 -32 7 -49 27
-22 38 -16 81 41 34 45 121 102 135 89 12 -13 -27 -99 -63 -139 -38 -42 -80
-64 -138 -73 -44 -7 -55 -15 -60 -42 -2 -11 -4 -20 -4 -21 -1 -1 -27 7 -58 18
-213 73 -422 -64 -468 -306 -9 -49 -6 -192 6 -243 6 -26 13 -58 15 -72 18 -91
122 -273 204 -357 38 -38 126 -83 164 -83 19 0 24 8 117 186 l83 162 78 -1 78
0 1 -36 c0 -20 1 -90 1 -156 0 -151 4 -159 71 -151 65 7 116 42 180 121 116
144 175 305 112 305 -7 0 -36 21 -63 48 -57 56 -81 115 -77 194 3 69 30 121
94 181 50 47 51 49 36 76 -20 40 -80 90 -145 120 -45 21 -69 26 -132 25 -47 0
-83 -6 -93 -14 -8 -7 -18 -10 -21 -8 -3 3 10 16 28 29 48 34 66 57 98 124 25
55 34 98 31 162 -1 30 -28 41 -78 32z m-141 -386 c-63 -47 -100 -103 -236
-359 -163 -308 -163 -294 -11 -294 58 0 105 -3 105 -6 0 -4 -20 -43 -44 -88
-24 -45 -56 -105 -71 -134 -15 -28 -29 -52 -32 -52 -14 0 -63 33 -89 62 -186
201 -255 514 -156 703 40 77 96 124 177 147 60 18 86 15 187 -19 42 -14 84
-23 93 -19 8 3 18 19 21 35 5 24 15 33 48 44 62 22 63 20 8 -20z m282 -30 c17
-8 41 -24 53 -36 l22 -20 -34 -40 c-19 -22 -44 -59 -55 -82 -26 -55 -36 -159
-21 -222 16 -64 72 -146 120 -179 l39 -25 -20 -47 c-46 -105 -155 -242 -193
-242 -16 0 -16 19 -16 558 -1 134 -4 175 -15 186 -18 19 -46 14 -59 -10 -6
-10 -55 -103 -109 -206 l-99 -188 -84 0 -85 0 57 108 c32 59 87 163 123 230
37 68 84 141 105 162 74 74 186 96 271 53z m-177 -433 l0 -110 -59 0 -59 0 56
110 c31 61 58 110 60 110 1 0 3 -49 2 -110z"/>
</g>
</svg>
